<?xml version="1.0" encoding="utf-8"?>
<!-- Generator: Adobe Illustrator 27.7.0, SVG Export Plug-In . SVG Version: 6.00 Build 0)  -->
<svg version="1.1" id="Ebene_1" xmlns="http://www.w3.org/2000/svg" xmlns:xlink="http://www.w3.org/1999/xlink" x="0px" y="0px"
	 viewBox="0 0 256 120" style="enable-background:new 0 0 256 120;" xml:space="preserve">
<g>
	<path d="M91.37,41.59c0,1.96-0.36,3.79-1.09,5.46c-0.73,1.68-1.72,3.13-2.99,4.35c-1.27,1.22-2.76,2.19-4.46,2.9
		c-1.71,0.71-3.53,1.07-5.46,1.07c-1.93,0-3.75-0.36-5.44-1.07c-1.69-0.71-3.17-1.68-4.44-2.92c-1.27-1.24-2.27-2.7-2.99-4.37
		c-0.73-1.68-1.09-3.48-1.09-5.42c0-1.9,0.37-3.69,1.11-5.37c0.74-1.68,1.75-3.14,3.01-4.4c1.27-1.25,2.75-2.24,4.44-2.95
		c1.69-0.71,3.49-1.07,5.39-1.07c1.93,0,3.75,0.36,5.46,1.07c1.71,0.71,3.2,1.68,4.46,2.9c1.27,1.22,2.27,2.68,2.99,4.37
		C91.01,37.84,91.37,39.66,91.37,41.59z M84.85,41.59c0-1.12-0.2-2.16-0.59-3.13c-0.39-0.97-0.93-1.81-1.6-2.54
		c-0.68-0.73-1.47-1.29-2.37-1.7c-0.9-0.41-1.87-0.61-2.89-0.61c-1.02,0-1.99,0.2-2.89,0.61c-0.9,0.41-1.69,0.97-2.37,1.7
		c-0.68,0.73-1.21,1.57-1.6,2.54c-0.39,0.97-0.59,2.01-0.59,3.13c0,1.12,0.2,2.16,0.59,3.13c0.39,0.97,0.93,1.81,1.6,2.54
		c0.68,0.73,1.47,1.29,2.37,1.7s1.87,0.61,2.89,0.61c1.02,0,1.99-0.2,2.89-0.61s1.69-0.97,2.37-1.7c0.68-0.73,1.21-1.57,1.6-2.54
		C84.65,43.75,84.85,42.71,84.85,41.59z"/>
</g>
<g>
	<path d="M93.77,84.15c-1.81,2.21-4.01,3.96-6.6,5.26s-5.43,1.95-8.54,1.95c-2.69,0-5.21-0.49-7.57-1.47
		c-2.36-0.98-4.41-2.32-6.15-4.01s-3.12-3.68-4.12-5.96c-1.01-2.28-1.51-4.74-1.51-7.37c0-2.63,0.5-5.08,1.51-7.37
		c1.01-2.28,2.38-4.28,4.12-5.98c1.74-1.71,3.79-3.04,6.15-4.01c2.36-0.97,4.88-1.45,7.57-1.45c3.11,0,5.96,0.65,8.54,1.95
		c2.58,1.3,4.74,2.99,6.46,5.08l-4.85,4.99c-1.12-1.6-2.56-2.89-4.33-3.88c-1.77-0.98-3.71-1.47-5.83-1.47
		c-1.69,0-3.29,0.33-4.78,0.97c-1.5,0.65-2.8,1.53-3.92,2.63c-1.12,1.1-2,2.39-2.65,3.85c-0.65,1.47-0.97,3.03-0.97,4.69
		c0,1.63,0.32,3.18,0.97,4.65c0.65,1.47,1.53,2.75,2.65,3.85c1.12,1.1,2.43,1.98,3.92,2.63c1.5,0.65,3.09,0.97,4.78,0.97
		c2.24,0,4.22-0.51,5.94-1.52c1.72-1.01,3.16-2.35,4.31-4.01L93.77,84.15z"/>
</g>
<g>
	<path d="M37.25,60.18c0,1.51-0.31,2.91-0.93,4.19c-0.62,1.29-1.44,2.39-2.47,3.31c-1.03,0.92-2.21,1.64-3.56,2.15
		c-1.35,0.51-2.76,0.77-4.24,0.77l-14.64-0.05V34.3h13.06c1.57,0,3.03,0.23,4.37,0.7c1.34,0.47,2.52,1.15,3.51,2.04
		c1,0.89,1.77,1.98,2.33,3.26c0.56,1.28,0.84,2.73,0.84,4.33c0,1.36-0.3,2.67-0.91,3.94c-0.6,1.27-1.41,2.34-2.4,3.22
		c0.79,0.39,1.49,0.89,2.11,1.5c0.62,0.6,1.15,1.28,1.59,2.02c0.44,0.74,0.77,1.53,1,2.36C37.14,58.5,37.25,59.33,37.25,60.18z
		 M28.59,44.77c0-0.88-0.17-1.63-0.5-2.27s-0.78-1.16-1.34-1.59c-0.56-0.42-1.2-0.74-1.93-0.95c-0.73-0.21-1.48-0.32-2.27-0.32
		h-4.12v9.97c0.75,0.03,1.44,0.05,2.04,0.05c0.6,0,1.3,0,2.08,0c0.79,0,1.54-0.09,2.27-0.27c0.73-0.18,1.37-0.47,1.93-0.86
		c0.56-0.39,1-0.9,1.34-1.52C28.43,46.39,28.59,45.65,28.59,44.77z M29.95,59.77c0-0.76-0.14-1.45-0.43-2.09
		c-0.29-0.63-0.68-1.17-1.18-1.61c-0.5-0.44-1.07-0.78-1.72-1.02c-0.65-0.24-1.35-0.36-2.11-0.36c-1.03-0.03-2.04-0.04-3.04-0.02
		c-1,0.02-2.01,0.02-3.04,0.02v10.02h5.26c0.76,0,1.51-0.09,2.27-0.27c0.75-0.18,1.43-0.48,2.02-0.88c0.59-0.41,1.07-0.92,1.43-1.54
		C29.77,61.4,29.95,60.65,29.95,59.77z"/>
	<path d="M60.14,47.08l-3.49,5.53c-0.63-0.69-1.34-1.31-2.11-1.84c-0.77-0.53-1.55-0.79-2.33-0.79c-0.42,0-0.88,0.1-1.38,0.29
		c-0.5,0.2-0.97,0.52-1.41,0.97c-0.44,0.45-0.81,1.05-1.11,1.79c-0.3,0.74-0.45,1.65-0.45,2.74v14.78h-6.53v-26.2h6.53v2.81
		c0.79-1.12,1.65-1.98,2.61-2.58c0.95-0.6,2.02-0.91,3.2-0.91c1.15,0,2.27,0.31,3.38,0.93C58.14,45.23,59.18,46.05,60.14,47.08z"/>
</g>
<g>
	<path d="M110.27,81.93c-0.51,0.24-1.1,0.44-1.75,0.59c-0.65,0.15-1.32,0.23-2.02,0.23c-0.97,0-1.9-0.13-2.79-0.39
		c-0.89-0.26-1.67-0.67-2.33-1.25c-0.67-0.57-1.19-1.32-1.59-2.24c-0.39-0.92-0.59-2.03-0.59-3.33v-31.1h6.66v29.96
		c0,1.09,0.22,1.84,0.66,2.24c0.44,0.41,0.96,0.61,1.56,0.61c0.75,0,1.48-0.23,2.18-0.68V81.93z"/>
	<path d="M140.51,68.92c0,0.42-0.02,0.86-0.07,1.31c-0.04,0.45-0.1,0.92-0.16,1.41h-20.94c0.24,0.76,0.58,1.47,1.02,2.15
		c0.44,0.68,0.97,1.27,1.61,1.77c0.63,0.5,1.35,0.89,2.15,1.18c0.8,0.29,1.68,0.43,2.65,0.43c1.18,0,2.36-0.2,3.54-0.61
		s2.16-0.96,2.95-1.65l4.12,4.12c-1.81,1.36-3.59,2.32-5.33,2.88c-1.74,0.56-3.57,0.84-5.51,0.84c-1.96,0-3.8-0.36-5.51-1.09
		c-1.71-0.73-3.19-1.71-4.44-2.95c-1.25-1.24-2.24-2.7-2.97-4.38c-0.73-1.68-1.09-3.47-1.09-5.37c0-1.9,0.36-3.7,1.09-5.37
		c0.73-1.68,1.72-3.14,2.99-4.37c1.27-1.24,2.75-2.22,4.44-2.95c1.69-0.73,3.51-1.09,5.44-1.09c1.84,0,3.61,0.34,5.3,1.02
		c1.69,0.68,3.19,1.62,4.49,2.83c1.3,1.21,2.33,2.65,3.08,4.33C140.13,65.04,140.51,66.9,140.51,68.92z M133.67,66.38
		c-0.51-1.66-1.43-3-2.74-4.01c-1.31-1.01-2.8-1.52-4.46-1.52c-1.63,0-3.1,0.51-4.4,1.52c-1.3,1.01-2.21,2.35-2.72,4.01H133.67z"/>
	<path d="M165.85,82.07h-6.53v-1.41c-1.15,0.79-2.37,1.33-3.65,1.63c-1.29,0.3-2.61,0.45-3.97,0.45c-1.27,0-2.42-0.19-3.45-0.57
		c-1.03-0.38-1.92-0.92-2.67-1.63c-0.76-0.71-1.34-1.55-1.75-2.52c-0.41-0.97-0.61-2.04-0.61-3.22c0-1.48,0.32-2.77,0.97-3.88
		c0.65-1.1,1.53-2.02,2.65-2.77c1.12-0.74,2.43-1.29,3.92-1.65c1.5-0.36,3.1-0.54,4.83-0.54h3.76c0-1.54-0.5-2.77-1.5-3.67
		s-2.43-1.36-4.31-1.36c-0.91,0-1.84,0.17-2.81,0.5c-0.97,0.33-1.93,0.94-2.9,1.81l-3.85-3.9c1.39-1.33,3-2.36,4.83-3.08
		c1.83-0.73,3.71-1.09,5.64-1.09c1.81,0,3.43,0.29,4.84,0.86c1.42,0.57,2.56,1.31,3.43,2.22c1.14,1.15,1.94,2.43,2.41,3.85
		c0.46,1.42,0.7,3.23,0.7,5.44V82.07z M159.32,75.54v-4.85h-2.99c-0.91,0-1.76,0.06-2.56,0.18c-0.8,0.12-1.5,0.33-2.08,0.61
		s-1.06,0.66-1.41,1.11c-0.35,0.45-0.52,1-0.52,1.63c0,0.91,0.36,1.65,1.07,2.22s1.62,0.86,2.74,0.86c0.97,0,1.93-0.15,2.88-0.45
		S158.36,76.11,159.32,75.54z"/>
	<path d="M194.73,82.07h-6.53V66.43c0-0.94-0.14-1.76-0.43-2.47c-0.29-0.71-0.67-1.3-1.16-1.77c-0.49-0.47-1.04-0.82-1.66-1.04
		s-1.27-0.34-1.93-0.34c-1,0-1.99,0.17-2.96,0.52c-0.97,0.35-1.85,0.9-2.64,1.65v19.08h-6.53v-26.2h6.53l0.05,1.95
		c0.39-0.39,0.88-0.76,1.45-1.09c0.57-0.33,1.17-0.61,1.79-0.84c0.62-0.23,1.25-0.4,1.9-0.52c0.65-0.12,1.28-0.18,1.88-0.18
		c1.33,0,2.61,0.21,3.83,0.63c1.22,0.42,2.31,1.07,3.26,1.95c0.95,0.88,1.71,2.01,2.29,3.4c0.57,1.39,0.86,3.04,0.86,4.94V82.07z"/>
	<path d="M226.77,68.92c0,0.42-0.02,0.86-0.07,1.31c-0.05,0.45-0.1,0.92-0.16,1.41h-20.94c0.24,0.76,0.58,1.47,1.02,2.15
		c0.44,0.68,0.97,1.27,1.61,1.77c0.63,0.5,1.35,0.89,2.15,1.18c0.8,0.29,1.68,0.43,2.65,0.43c1.18,0,2.36-0.2,3.54-0.61
		s2.16-0.96,2.95-1.65l4.12,4.12c-1.81,1.36-3.59,2.32-5.33,2.88c-1.74,0.56-3.57,0.84-5.51,0.84c-1.96,0-3.8-0.36-5.51-1.09
		s-3.19-1.71-4.44-2.95s-2.24-2.7-2.97-4.38c-0.73-1.68-1.09-3.47-1.09-5.37c0-1.9,0.36-3.7,1.09-5.37
		c0.73-1.68,1.72-3.14,2.99-4.37c1.27-1.24,2.75-2.22,4.44-2.95c1.69-0.73,3.5-1.09,5.44-1.09c1.84,0,3.61,0.34,5.3,1.02
		c1.69,0.68,3.19,1.62,4.49,2.83c1.3,1.21,2.33,2.65,3.08,4.33C226.4,65.04,226.77,66.9,226.77,68.92z M219.93,66.38
		c-0.51-1.66-1.43-3-2.74-4.01s-2.8-1.52-4.47-1.52c-1.63,0-3.1,0.51-4.4,1.52c-1.3,1.01-2.21,2.35-2.72,4.01H219.93z"/>
	<path d="M249.67,58.58l-3.49,5.53c-0.63-0.7-1.34-1.31-2.11-1.84c-0.77-0.53-1.55-0.79-2.33-0.79c-0.42,0-0.88,0.1-1.38,0.29
		c-0.5,0.2-0.97,0.52-1.41,0.97c-0.44,0.45-0.81,1.05-1.11,1.79c-0.3,0.74-0.45,1.65-0.45,2.74v14.78h-6.53v-26.2h6.53v2.81
		c0.79-1.12,1.66-1.98,2.61-2.58c0.95-0.6,2.02-0.91,3.2-0.91c1.15,0,2.27,0.31,3.38,0.93C247.67,56.73,248.7,57.56,249.67,58.58z"
		/>
</g>
</svg>
